HIERARCHY
ROOT Hips
{
	OFFSET 0.000000 0.000000 0.000000
	CHANNELS 6 Xposition Yposition Zposition Zrotation Yrotation Xrotation 
	JOINT LHipJoint
	{
		OFFSET 0.000000 0.000000 0.000000
		CHANNELS 3 Zrotation Yrotation Xrotation
		JOINT LeftUpLeg
		{
			OFFSET 1.363060 -1.794630 0.839290
			CHANNELS 3 Zrotation Yrotation Xrotation
			JOINT LeftLeg
			{
				OFFSET 2.448110 -6.726130 0.000000
				CHANNELS 3 Zrotation Yrotation Xrotation
				JOINT LeftFoot
				{
					OFFSET 2.562200 -7.039590 0.000000
					CHANNELS 3 Zrotation Yrotation Xrotation
					JOINT LeftToeBase
					{
						OFFSET 0.157640 -0.433110 2.322550
						CHANNELS 3 Zrotation Yrotation Xrotation
						End Site
						{
							OFFSET 0.000000 0.000000 0.000000
						}
					}
				}
			}
		}
	}
	JOINT RHipJoint
	{
		OFFSET 0.000000 0.000000 0.000000
		CHANNELS 3 Zrotation Yrotation Xrotation
		JOINT RightUpLeg
		{
			OFFSET -1.305520 -1.794630 0.839290
			CHANNELS 3 Zrotation Yrotation Xrotation
			JOINT RightLeg
			{
				OFFSET -2.542530 -6.985550 0.000000
				CHANNELS 3 Zrotation Yrotation Xrotation
				JOINT RightFoot
				{
					OFFSET -2.568260 -7.056230 0.000000
					CHANNELS 3 Zrotation Yrotation Xrotation
					JOINT RightToeBase
					{
						OFFSET -0.164730 -0.452590 2.363150
						CHANNELS 3 Zrotation Yrotation Xrotation
						End Site
						{
							OFFSET 0.000000 0.000000 0.000000
						}
					}
				}
			}
		}
	}
	JOINT LowerBack
	{
		OFFSET 0.000000 0.000000 0.000000
		CHANNELS 3 Zrotation Yrotation Xrotation
		JOINT Spine
		{
			OFFSET 0.028270 2.035590 -0.193380
			CHANNELS 3 Zrotation Yrotation Xrotation
			JOINT Spine1
			{
				OFFSET 0.056720 2.048850 -0.042750
				CHANNELS 3 Zrotation Yrotation Xrotation
				JOINT Neck
				{
					OFFSET 0.000000 0.000000 0.000000
					CHANNELS 3 Zrotation Yrotation Xrotation
					JOINT Neck1
					{
						OFFSET -0.054170 1.746240 0.172020
						CHANNELS 3 Zrotation Yrotation Xrotation
						JOINT Head
						{
							OFFSET 0.104070 1.761360 -0.123970
							CHANNELS 3 Zrotation Yrotation Xrotation
							End Site
							{
								OFFSET 0.000000 0.000000 0.000000
							}
						}
					}
				}
				JOINT LeftShoulder
				{
					OFFSET 0.000000 0.000000 0.000000
					CHANNELS 3 Zrotation Yrotation Xrotation
					JOINT LeftArm
					{
						OFFSET 3.362410 1.200890 -0.311210
						CHANNELS 3 Zrotation Yrotation Xrotation
						JOINT LeftForeArm
						{
							OFFSET 4.983000 -0.000000 -0.000000
							CHANNELS 3 Zrotation Yrotation Xrotation
							JOINT LeftHand
							{
								OFFSET 3.483560 -0.000000 -0.000000
								CHANNELS 3 Zrotation Yrotation Xrotation
								JOINT LeftFingerBase
								{
									OFFSET 0.000000 0.000000 0.000000
									CHANNELS 3 Zrotation Yrotation Xrotation
									JOINT LeftHandIndex1
									{
										OFFSET 0.715260 -0.000000 -0.000000
										CHANNELS 3 Zrotation Yrotation Xrotation
										End Site
										{
											OFFSET 0.000000 0.000000 0.000000
										}
									}
								}
								JOINT LThumb
								{
									OFFSET 0.000000 0.000000 0.000000
									CHANNELS 3 Zrotation Yrotation Xrotation
									End Site
									{
										OFFSET 0.000000 0.000000 0.000000
									}
								}
							}
						}
					}
				}
				JOINT RightShoulder
				{
					OFFSET 0.000000 0.000000 0.000000
					CHANNELS 3 Zrotation Yrotation Xrotation
					JOINT RightArm
					{
						OFFSET -3.136600 1.374050 -0.404650
						CHANNELS 3 Zrotation Yrotation Xrotation
						JOINT RightForeArm
						{
							OFFSET -5.241900 -0.000000 -0.000000
							CHANNELS 3 Zrotation Yrotation Xrotation
							JOINT RightHand
							{
								OFFSET -3.444170 -0.000000 -0.000000
								CHANNELS 3 Zrotation Yrotation Xrotation
								JOINT RightFingerBase
								{
									OFFSET 0.000000 0.000000 0.000000
									CHANNELS 3 Zrotation Yrotation Xrotation
									JOINT RightHandIndex1
									{
										OFFSET -0.622530 -0.000000 -0.000000
										CHANNELS 3 Zrotation Yrotation Xrotation
										End Site
										{
											OFFSET 0.000000 0.000000 0.000000
										}
									}
								}
								JOINT RThumb
								{
									OFFSET 0.000000 0.000000 0.000000
									CHANNELS 3 Zrotation Yrotation Xrotation
									End Site
									{
										OFFSET 0.000000 0.000000 0.000000
									}
								}
							}
						}
					}
				}
			}
		}
	}
}
MOTION
Frames: 5
Frame Time: 0.008333
11.044364 14.685451 0.888576 145.523171 -87.487226 -106.810617 -9.344291 -1.887536 1.812206 -14.935232 -8.081255 -82.753969 2.915984 5.815891 88.842874 4.115678 18.636358 -17.773101 -2.447200 -0.000000 -33.691700 9.190430 0.936040 4.032291 6.050809 11.338791 -65.848808 -0.439700 -4.333186 71.844605 -5.826623 -15.988210 -41.046769 9.071500 -0.000001 -46.498600 -0.797415 -1.814859 -4.649231 -1.245386 -2.012487 -4.371819 -6.951973 -2.265572 -0.971880 10.549823 -2.510341 -11.729490 -4.542550 -0.288018 -1.643194 0.000000 0.000000 0.000000 -2.273253 6.882605 5.596256 -71.627251 -1.660524 -20.413234 -2.359197 -10.706823 -0.006160 1.397449 11.080494 0.135857 -0.018122 0.124752 -0.000000 0.000000 0.000000 0.000000 0.000000 0.000000 0.000000 19.678051 2.868029 2.400038 73.854125 12.182328 -11.194749 0.678658 49.443917 -0.028975 -5.648484 6.486769 -0.338888 0.032305 -0.346129 0.000000 0.000000 0.000000 0.000000 0.000000 0.000000 0.000000 
10.881805 14.758085 0.877493 143.911321 -87.411993 -105.277469 -9.288787 -1.789896 1.881775 -15.417768 -8.115691 -82.819542 2.918969 5.801820 88.676867 4.179171 19.035965 -17.194070 -2.289099 0.000000 -30.326700 9.245418 0.818055 4.075104 6.040036 11.026537 -64.443587 -0.297158 -4.188486 70.362481 -5.815038 -15.838727 -40.937416 8.988700 0.000000 -47.077400 -0.877629 -1.820244 -4.844464 -1.254401 -2.018512 -4.384977 -6.946650 -2.268926 -0.851593 10.588289 -2.757252 -11.822147 -4.532346 -0.287649 -1.654654 0.000000 0.000000 0.000000 -2.132231 7.307823 5.561057 -71.745338 -0.778152 -20.525595 -2.416885 -10.287158 -0.006646 1.361741 11.211399 0.134338 -0.021187 0.120050 -0.000000 0.000000 0.000000 0.000000 0.000000 0.000000 0.000000 19.703860 2.671404 2.324111 73.837355 12.185981 -10.707123 0.721926 49.809972 -0.027874 -5.529809 6.469528 -0.330953 0.034451 -0.345177 0.000000 0.000000 0.000000 0.000000 0.000000 0.000000 0.000000 
10.717076 14.830758 0.868069 142.222818 -87.366992 -103.662661 -9.230168 -1.679588 1.971055 -15.860825 -8.172278 -82.882406 2.866338 5.785890 88.265653 4.211976 19.158477 -16.997948 -2.227500 -0.000000 -27.273200 9.293367 0.694644 4.104024 6.071974 10.676765 -63.007100 -0.150489 -4.038336 68.796720 -5.797622 -15.670197 -40.765353 8.880501 -0.000000 -47.733201 -0.940629 -1.818363 -5.044360 -1.260385 -2.018863 -4.398043 -6.944968 -2.266469 -0.727365 10.619456 -3.006603 -11.912930 -4.524301 -0.287482 -1.665514 0.000000 0.000000 0.000000 -1.998152 7.746172 5.519380 -71.795460 0.036820 -20.777335 -2.453957 -9.938132 -0.007500 1.554374 11.283182 0.154316 -0.023744 0.115820 -0.000000 0.000000 0.000000 0.000000 0.000000 0.000000 0.000000 19.730548 2.469695 2.247183 73.770580 12.175044 -10.327451 0.764155 50.227249 -0.026659 -5.384044 6.462664 -0.322018 0.036290 -0.344345 0.000000 0.000000 0.000000 0.000000 0.000000 0.000000 0.000000 
10.550114 14.903558 0.860755 140.522572 -87.358796 -102.033928 -9.173643 -1.558768 2.081527 -16.244959 -8.245670 -82.929902 2.756142 5.765869 87.577125 4.209149 18.982583 -17.149270 -2.253500 0.000000 -24.615501 9.328120 0.562806 4.116603 6.161811 10.297664 -61.520479 0.001602 -3.879622 67.128830 -5.776517 -15.490275 -40.532383 8.751900 -0.000001 -48.422100 -0.975886 -1.807709 -5.246854 -1.261321 -2.012775 -4.411941 -6.947146 -2.257510 -0.604129 10.639760 -3.253553 -11.997442 -4.518862 -0.287608 -1.674506 0.000000 0.000000 0.000000 -1.879324 8.174193 5.471865 -71.784407 0.813280 -21.165067 -2.471629 -9.695982 -0.008605 1.951784 11.296630 0.193690 -0.025747 0.111944 -0.000000 0.000000 0.000000 0.000000 0.000000 0.000000 0.000000 19.755364 2.268083 2.172657 73.655027 12.152336 -10.068596 0.804351 50.675990 -0.025429 -5.232097 6.455143 -0.312584 0.038015 -0.343570 0.000000 0.000000 0.000000 0.000000 0.000000 0.000000 0.000000 
10.381069 14.976582 0.855288 138.608734 -87.383176 -100.197197 -9.113358 -1.425288 2.211522 -16.576751 -8.345174 -82.936595 2.586022 5.736520 86.580468 4.168961 18.506645 -17.591631 -2.344400 0.000000 -22.332000 9.356152 0.426010 4.107828 6.299597 9.873713 -59.969409 0.160404 -3.712934 65.351072 -5.750186 -15.293095 -40.246511 8.603301 0.000000 -49.116000 -0.993705 -1.791828 -5.443270 -1.259125 -2.002729 -4.422629 -6.951626 -2.244233 -0.474472 10.654020 -3.510218 -12.084860 -4.514631 -0.287767 -1.684575 0.000000 0.000000 0.000000 -1.766471 8.623573 5.416598 -71.717877 1.505667 -21.681853 -2.472753 -9.533815 -0.009839 2.517486 11.234600 0.247865 -0.027165 0.108484 -0.000000 0.000000 0.000000 0.000000 0.000000 0.000000 0.000000 19.782310 2.052790 2.098049 73.494557 12.145828 -9.911054 0.841908 51.127543 -0.024310 -5.101657 6.436838 -0.304052 0.039928 -0.342680 0.000000 0.000000 0.000000 0.000000 0.000000 0.000000 0.000000 
